<?xml version="1.0" encoding="utf-8"?>
<!-- Generator: Adobe Illustrator 27.9.0, SVG Export Plug-In . SVG Version: 6.00 Build 0)  -->
<svg version="1.1" id="Layer_1" xmlns="http://www.w3.org/2000/svg" xmlns:xlink="http://www.w3.org/1999/xlink" x="0px" y="0px"
	 viewBox="0 0 595.3 841.9" style="enable-background:new 0 0 595.3 841.9;" xml:space="preserve">
<style type="text/css">
	.st0{fill:#FEFEFE;}
	.st1{fill:#E57D21;}
	.st2{fill:#D25415;}
</style>
<g>
	<path class="st0" d="M553.9,421.4c0,83.8,0,167.6,0.1,251.3c0,3.4-0.6,4.1-4.1,4.1c-167.9-0.1-335.8-0.1-503.7,0
		c-3.9,0-4.2-1.2-4.2-4.5c0.1-167.7,0.1-335.4,0-503.2c0-3.6,0.7-4.4,4.3-4.4c167.7,0.1,335.5,0.1,503.2,0c4,0,4.5,1.2,4.5,4.7
		C553.9,253.5,553.9,337.5,553.9,421.4z"/>
	<path class="st1" d="M347,665.8c-12,2.9-24.2,4-36.5,4.7c-124.8,6.9-237.9-82.7-258.4-206.2c-14.8-89.2,11.6-165.7,77.3-227.6
		c38.9-36.7,85.8-57.7,139.1-63.9c127.1-14.6,242.7,66.1,272.7,190.8c10.8,44.9,8.7,89.5-5.2,133.5c-0.3,0.9-0.8,1.8-1.1,2.7
		c-3.2,0.2-4.5-2.5-6.3-4.2C477.3,444.4,426.1,393.2,374.9,342c-1.5-1.5-2.8-3.3-5.1-3.9c-5.2-4.2-8.9-9.8-13.9-14.2
		c-29.3-26.3-78.1-26.6-107.3-0.5c-12.3,10.9-21.2,23.8-25.6,39.7c-1.3,4.6-3.2,7-8.3,7.5c-15.5,1.3-29.4,6.7-41.2,17.1
		c-12.3,10.9-20.2,24.3-22.9,40.5c-4.4,26.2,4.3,47.8,23.8,65.4c1.5,1.3,3.1,2.5,4.3,4.2c1.6,2.1,3.6,4,5.4,5.8
		c51,51,102.1,102.1,153.1,153.1C340.3,659.9,343.4,663.1,347,665.8z"/>
	<path class="st2" d="M370.8,338.1c2.7-1.1,3.3,1.6,4.4,2.7c51.8,51.6,103.5,103.3,155.2,155c1.4,1.4,2.9,2.7,4.4,4
		c-3.6,13.9-9.7,26.8-16.6,39.3c-37.3,67-93.5,109.2-168.3,126.4c-1,0.2-2,0.2-3,0.2c-2,0.1-3.4-0.9-4.8-2.2
		c-54.3-54.4-108.7-108.7-163-163.1c-0.5-0.5-0.8-1.1-1.2-1.6c2-1.3,3.5,0.1,5,0.9c12.4,7.2,25.8,10.3,40.2,9.8
		c14-0.5,28-0.1,42-0.1c5.7,0,8-1.4,8-4.6c0-3.2-2.4-4.6-8-4.7c-14.3,0-28.7,0.2-43-0.1c-17.8-0.4-34-5.5-46.2-19
		c-17.3-19.1-21.7-41.4-11.2-64.9c10.1-22.7,28.8-34.7,54-35.7c1.3-0.1,2.7,0,4,0c5.3-0.2,6.9-1.4,7.8-6.5
		c2.5-13.4,8-25.3,17.2-35.5c12.8-14.3,28.6-22.3,47.8-24.1c16.2-1.5,31.2,1.8,44.7,10.7c21.7,14.2,33.2,34.5,34,60.6
		c0,0.3,0,0.7,0,1c0,8.9,0.9,9.7,9.7,9.8c15,0.3,28.2,5.4,38.4,16.5c13.9,15,17.6,32.8,11.1,52c-6.6,19.4-20.8,31.1-41.2,34.1
		c-17.5,2.6-35.3,0.6-52.9,1.1c-2.2,0.1-4.3-0.1-6.5,0.2c-2.6,0.3-4.5,1.5-4.8,4.2c-0.3,2.8,1.6,4.2,4,5c2.4,0.8,4.9,0.9,7.4,0.9
		c13,0,26,0.1,39,0c19.3-0.1,37.1-4.7,50.7-19.4c16.6-18,21.9-39.1,13.9-62.5c-8-23.2-24.8-36.9-49-41.2c-1.1-0.2-2.3-0.3-3.5-0.5
		c-3.8-0.5-5.7-2.4-6.2-6.5c-1.3-12-4.4-23.5-10.3-34.2C372.7,343.7,370.3,341.4,370.8,338.1z"/>
	<path class="st2" d="M370.8,338.1c8.8,13.5,14.2,28.2,15,44.3c0.2,4.6,3.9,2.9,5.9,3.1c18.7,2.4,33.8,11,44.5,26.5
		c13.8,19.9,15.9,41.6,5.3,63.4c-10.4,21.5-28.1,34.1-52.2,35.5c-18.3,1.1-36.6,0.5-54.9,0.5c-5.3,0-8.4-2.7-8.2-6.7
		c0.2-3.9,3-6,8.2-6.1c16.5,0,33,0.1,49.5,0c28.5-0.2,50.7-21.8,51.1-49.3c0.4-29.1-23-52.1-52.1-51.3c-8.9,0.2-10.2-1-10-9.9
		c0.7-36.5-27.1-68.8-62-72.2c-39.3-3.8-72.3,20.7-79,58.7c-1.1,6.2-2.9,7.5-9.6,7.4c-35.6-1-62.6,25.9-61.4,61.3
		c1,30.5,27.1,54.9,59.1,55.2c14.8,0.1,29.6,0,44.5,0c1.3,0,2.7,0,4,0c3.9,0.2,6.4,2.1,6.5,6.1c0.1,4.3-2.5,6.4-6.6,6.4
		c-11.3,0.1-22.6,0.1-34,0c-11.3-0.1-22.6,0.7-33.8-2.3c-8.1-2.2-15.2-6.4-22.6-10c-1-1-1.9-2.2-3-3.1
		c-23.7-19.6-32.7-49.3-23.4-77.6c9.1-27.9,34.1-47.1,64.2-49c3.1-0.2,4.4-1,5.4-4.2c9.5-32.7,30.9-53.9,64.3-60.7
		c33.6-6.7,61.6,4.5,83.3,31.1C369.3,336.4,370.1,337.2,370.8,338.1z"/>
	<path class="st2" d="M307.1,454.2c0,25.8,0,50.3,0,74.7c0,1.5,0.1,3-0.1,4.5c-0.5,3.4-2.4,5.4-5.9,5.6c-3.5,0.2-5.7-1.6-6.5-5
		c-0.4-1.8-0.3-3.6-0.3-5.5c0-24.3,0-48.6,0-74.2c-4.2,3.7-7.7,6.8-11.2,9.9c-1.6,1.4-3.2,3-5,4.2c-2.9,1.9-5.8,1.3-8.1-1.2
		c-2.3-2.6-2.5-5.8,0-8.1c8.3-7.7,16.7-15.3,25.4-22.5c3.7-3.1,8.3-2.4,12,0.7c8,6.8,15.8,13.8,23.5,20.9c3.1,2.8,3.4,6.3,0.5,9.3
		c-2.9,3-6.2,2.6-9.3-0.1C317.3,463.3,312.6,459.1,307.1,454.2z"/>
</g>
<circle class="st2" cx="264.8" cy="409.1" r="125.2"/>
<g>
	<path class="st0" d="M299.1,260.4c32,0.7,64.6,3.3,96.7,10.6c3.1,0.7,6.2,1.6,9.2,2.8c11.9,4.6,13,6.4,13,19.1
		c0,18.3-0.3,36.6,0.1,54.9c0.2,8.5-3.4,14.1-10.5,18.1c-13,7.4-27.4,10.4-41.9,12.6c-41,6.4-82.1,6.4-123.3,1.9
		c-17.4-1.9-34.6-4.9-50.8-12.1c-9.9-4.4-15.4-10.8-14.7-22.7c0.9-17.2,0.2-34.6,0.2-51.9c0-13,3.1-17.3,15.8-21.1
		c13.3-4,27.1-6,40.8-7.8C255.3,262.1,276.8,260.7,299.1,260.4z"/>
	<path class="st0" d="M177.3,517.7c0-10.5,0-20.9,0-31.4c0-2.9,0.5-5.6,2.5-7.8c1.4-1.6,2.4-2.8,5-1.2c15.5,9.9,33.3,12.9,51,15.3
		c35.2,4.9,70.6,5.5,106,2.1c20-1.9,40-4.4,58.8-12.2c3.1-1.3,6.4-2.7,9-4.8c3.9-3,5.7-1.1,7.4,2.2c1.3,2.4,1.2,5.1,1.2,7.7
		c0,19.7-0.2,39.4,0.1,59.2c0.1,7.3-2.9,12.3-8.7,16c-10.9,7-23.2,10.1-35.7,12.3c-46.9,8.4-94.1,8.4-141.2,2
		c-13.3-1.8-26.5-4.6-39-10c-3.7-1.6-7.2-3.5-10.3-6.1c-4-3.2-6.1-7.1-5.9-12.5C177.5,538.2,177.3,527.9,177.3,517.7z"/>
	<path class="st0" d="M305.7,480.5c-37.3,0-66.5-1.8-95.3-8.8c-8-1.9-15.9-4.5-23-8.7c-6.7-3.9-10.5-9.1-10.3-17.6
		c0.5-19.3,0.2-38.6,0.2-58c0-2.2-0.2-4.5,0.5-6.6c1.2-3.6,2.8-5.9,7.4-2.8c11.4,7.7,24.6,10.7,37.9,13c45.6,7.9,91.3,8.2,137,1.9
		c17.9-2.5,35.9-5.3,51.3-16c2.4-1.7,4-1,5.2,1.5c1.3,2.6,1.3,5.4,1.3,8.2c0,19.3-0.3,38.6,0.1,58c0.2,8.6-3.5,14.2-10.5,18.2
		c-9.9,5.7-20.8,8.6-31.8,10.8C350.2,478.8,324.1,480.6,305.7,480.5z"/>
</g>
</svg>
